<svg xmlns="http://www.w3.org/2000/svg" width="1024" height="1024" viewBox="0 0 1024 1024">
<g>
<path d="M 603.71 618.82 C602.83,619.56 572.93,619.99 507.74,620.20 C455.66,620.38 412.48,620.35 411.78,620.14 C410.13,619.66 408.00,616.97 408.00,615.38 C408.00,614.70 408.72,613.43 409.59,612.55 C411.03,611.11 420.54,610.97 506.29,611.05 C565.46,611.10 602.07,611.50 603.19,612.10 C605.28,613.22 605.60,617.26 603.71,618.82 ZM 528.00 588.45 C472.17,588.54 425.60,588.85 424.50,589.14 C423.40,589.42 418.23,589.33 413.00,588.94 C407.77,588.54 397.38,588.17 389.89,588.11 L 376.28 588.00 L 371.89 584.18 C369.48,582.07 366.77,580.09 365.89,579.76 C364.26,579.16 362.55,575.00 363.94,575.00 C364.35,575.00 365.55,575.95 366.59,577.10 C369.60,580.42 375.96,583.71 382.72,585.45 C388.27,586.87 401.94,587.01 510.22,586.77 L 631.50 586.50 L 637.26 584.18 C643.06,581.83 650.90,575.56 649.62,574.29 C649.24,573.91 584.82,573.65 506.47,573.72 C428.12,573.78 363.79,573.46 363.50,573.00 C362.70,571.70 373.59,571.40 413.50,571.61 C445.99,571.79 450.90,571.61 453.75,570.18 C456.78,568.66 457.22,568.66 460.25,570.30 C463.28,571.93 468.73,572.04 538.50,571.86 C579.75,571.75 616.20,571.35 619.50,570.96 C622.80,570.57 631.21,570.73 638.18,571.31 C648.98,572.20 650.93,572.62 651.33,574.14 C651.59,575.16 650.76,577.04 649.42,578.50 C648.11,579.91 646.57,581.94 645.99,583.02 C645.41,584.11 643.96,584.94 642.72,584.90 C641.50,584.85 638.03,585.60 635.00,586.54 C629.96,588.12 620.96,588.28 528.00,588.45 ZM 414.43 617.39 C418.49,619.05 600.17,619.32 601.23,617.67 C602.55,615.59 602.05,614.15 599.75,613.38 C598.51,612.97 557.07,612.73 507.65,612.84 C427.54,613.03 417.47,613.22 414.72,614.65 L 411.62 616.25 ZM 646.00 590.29 C640.68,593.29 631.00,596.30 631.00,594.95 C631.00,594.43 631.61,594.00 632.35,594.00 C633.09,594.00 635.56,592.65 637.84,591.00 C640.12,589.35 642.59,588.00 643.34,588.00 C646.01,588.00 650.58,585.01 655.41,580.10 C659.69,575.75 660.33,574.55 660.41,570.82 C660.50,566.53 660.50,566.53 656.38,565.96 C654.12,565.65 630.96,565.48 604.91,565.57 C573.91,565.68 556.99,565.39 555.92,564.72 C554.31,563.71 554.40,560.00 556.04,560.00 C556.48,560.00 558.12,558.94 559.67,557.64 C561.23,556.35 564.08,554.77 566.00,554.14 C570.26,552.74 578.28,544.84 586.71,533.74 C590.28,529.04 606.38,516.02 608.63,516.01 C609.80,516.00 611.31,515.33 611.99,514.51 C612.68,513.69 614.89,512.57 616.91,512.02 C618.93,511.48 621.56,510.13 622.75,509.02 C623.94,507.91 625.60,507.00 626.43,507.00 C628.29,507.00 637.00,502.85 637.00,501.96 C637.00,501.61 639.59,500.47 642.75,499.42 C645.91,498.37 650.47,496.29 652.88,494.80 C658.62,491.24 666.00,484.28 666.00,482.42 C666.00,481.61 667.06,480.55 668.36,480.05 C671.76,478.76 675.75,471.28 677.56,462.83 C679.31,454.64 678.97,450.39 676.03,443.91 C673.38,438.07 664.17,426.88 660.46,425.00 C656.21,422.85 639.62,423.06 635.30,425.32 C631.03,427.56 627.03,427.53 626.89,425.25 C626.83,424.29 626.67,419.90 626.53,415.50 C626.08,401.06 622.54,397.44 606.00,394.47 C592.14,391.99 577.31,388.20 581.00,388.08 C588.16,387.85 612.63,393.35 619.28,396.68 C627.76,400.92 628.00,401.40 628.00,414.61 C628.00,425.28 628.14,426.15 629.75,425.47 C636.45,422.63 640.45,421.83 648.11,421.81 C658.33,421.78 663.39,423.64 669.61,429.72 C680.80,440.64 683.21,459.38 675.45,475.00 C669.87,486.21 659.09,494.51 637.12,504.48 C629.55,507.92 618.66,513.13 612.93,516.06 C602.10,521.60 600.36,523.10 580.21,544.18 C576.20,548.37 569.34,554.15 564.96,557.03 C560.58,559.90 557.00,562.65 557.00,563.13 C557.00,563.61 580.20,564.00 609.46,564.00 C659.71,564.00 661.97,564.08 662.93,565.87 C665.87,571.37 657.11,584.01 646.00,590.29 ZM 353.00 568.52 C353.00,569.27 352.55,570.16 352.00,570.50 C350.37,571.51 350.86,567.28 352.57,565.57 C353.96,564.19 359.90,564.00 402.77,564.00 C433.25,564.00 451.05,563.65 450.45,563.06 C449.93,562.54 445.50,559.61 440.62,556.54 C422.41,545.12 410.26,531.63 399.60,511.00 C388.71,489.92 384.52,476.52 380.53,450.00 C378.72,438.02 377.36,409.68 378.39,405.57 C379.27,402.07 383.35,398.25 388.68,395.94 C393.53,393.84 413.00,389.41 421.00,388.59 C425.98,388.08 425.65,388.26 417.50,390.47 C412.55,391.82 407.28,392.94 405.80,392.96 C404.31,392.98 402.06,393.39 400.80,393.87 C399.53,394.35 395.80,395.57 392.50,396.57 C384.35,399.06 382.34,400.69 380.43,406.33 C377.98,413.54 379.10,434.74 383.08,456.50 C387.59,481.15 390.06,488.93 398.46,505.00 C400.91,509.67 404.26,516.20 405.91,519.50 C408.07,523.81 412.40,529.01 421.30,538.00 C435.72,552.55 438.98,555.15 443.22,555.49 C444.93,555.62 446.82,556.37 447.41,557.16 C448.01,557.95 449.50,559.28 450.73,560.13 C452.72,561.49 452.81,561.88 451.56,563.58 C450.21,565.43 448.57,565.49 405.16,565.15 C359.32,564.79 353.00,565.20 353.00,568.52 ZM 614.30 505.83 C611.99,507.02 609.90,508.00 609.66,508.00 C607.80,508.00 608.39,500.99 610.54,497.50 C611.22,496.40 612.09,493.72 612.47,491.53 C612.86,489.35 613.78,486.38 614.53,484.94 C615.28,483.49 616.41,480.10 617.03,477.40 C618.32,471.83 619.98,468.00 621.10,468.00 C622.18,468.00 617.76,483.63 613.39,495.28 C611.38,500.66 609.93,505.27 610.18,505.52 C610.88,506.21 643.54,491.49 649.37,487.86 C657.59,482.74 663.97,476.10 667.02,469.50 C674.34,453.67 670.46,439.24 657.07,432.49 C651.67,429.77 641.19,430.83 633.15,434.91 C629.66,436.68 626.55,437.89 626.26,437.59 C625.27,436.61 628.21,434.00 630.29,434.00 C631.42,434.00 633.05,433.40 633.92,432.67 C636.35,430.63 647.90,428.85 652.12,429.86 C657.09,431.06 664.55,434.89 667.01,437.52 C671.76,442.57 672.69,446.05 671.79,455.45 C671.32,460.26 670.28,465.49 669.47,467.05 C668.66,468.62 668.00,471.07 668.00,472.50 C668.00,473.92 666.99,476.10 665.75,477.34 C664.51,478.58 662.76,480.70 661.86,482.05 C660.96,483.40 658.04,485.36 655.36,486.40 C652.69,487.45 649.93,488.75 649.23,489.30 C646.21,491.63 632.33,499.20 630.50,499.50 C627.82,499.94 622.81,501.54 620.43,502.71 C619.37,503.23 616.61,504.63 614.30,505.83 ZM 575.00 396.20 C575.00,396.24 575.00,396.28 575.00,396.31 C575.01,396.42 575.01,396.50 574.98,396.58 C574.78,397.05 573.11,396.88 560.70,395.65 L 558.50 395.43 C550.70,394.66 530.60,394.12 508.25,394.07 C487.76,394.03 471.00,393.62 471.00,393.15 C471.00,392.00 489.49,390.47 500.00,390.75 C538.58,391.78 575.00,394.43 575.00,396.20 ZM 602.63 413.50 C596.51,414.78 590.38,416.06 589.00,416.35 C587.62,416.64 585.83,416.61 585.00,416.28 C584.18,415.94 588.00,414.91 593.50,413.98 C604.10,412.20 613.52,409.69 616.00,407.99 C617.31,407.09 617.27,406.78 615.68,405.57 C613.08,403.58 600.25,400.35 587.53,398.50 C581.50,397.62 576.33,396.64 576.03,396.33 C575.13,395.37 593.14,397.10 599.50,398.59 C609.42,400.91 618.00,404.55 618.00,406.44 C618.00,409.09 613.16,411.31 602.63,413.50 ZM 454.00 394.99 C447.12,395.51 439.36,396.22 436.75,396.56 C433.60,396.98 432.00,396.82 432.00,396.09 C432.00,395.49 433.24,395.00 434.75,394.99 C436.26,394.99 438.72,394.35 440.21,393.57 C443.94,391.63 467.55,391.15 469.38,392.98 C470.07,393.67 469.77,394.01 468.45,394.02 C467.38,394.04 460.88,394.47 454.00,394.99 ZM 379.37 593.08 C384.05,595.21 382.34,595.54 376.95,593.55 C366.98,589.88 358.22,583.34 353.89,576.33 C351.36,572.22 352.01,570.70 354.65,574.55 C356.36,577.03 359.16,580.04 363.06,583.54 C363.91,584.31 366.71,585.87 369.26,587.00 C371.82,588.13 374.22,589.54 374.58,590.13 C374.95,590.72 377.10,592.05 379.37,593.08 ZM 538.50 420.13 C529.55,420.93 469.79,420.91 464.50,420.11 C462.30,419.77 479.62,419.50 503.00,419.50 C526.38,419.50 542.35,419.78 538.50,420.13 ZM 454.50 418.35 C456.70,418.52 453.55,418.69 447.50,418.71 C441.45,418.74 435.15,418.42 433.50,418.00 C431.85,417.58 428.08,417.18 425.12,417.12 C422.15,417.05 418.10,416.58 416.12,416.07 C414.13,415.56 409.91,414.59 406.74,413.91 C396.73,411.77 401.38,411.72 413.68,413.84 C423.75,415.58 434.79,416.80 454.50,418.35 ZM 577.85 387.52 C578.12,387.78 576.08,388.00 573.33,388.00 C570.58,388.00 568.12,387.78 567.86,387.52 C567.59,387.26 560.43,386.83 551.94,386.57 C543.45,386.31 534.25,385.68 531.50,385.18 L 526.50 384.27 L 532.00 384.14 C538.59,383.99 577.16,386.83 577.85,387.52 ZM 450.00 386.88 C439.17,387.97 427.33,388.33 428.11,387.56 C428.83,386.84 466.71,383.99 473.36,384.15 C478.70,384.29 478.26,384.41 470.00,385.07 C464.77,385.49 455.77,386.30 450.00,386.88 ZM 624.49 452.80 C623.25,460.11 621.89,466.41 621.48,466.80 C621.06,467.18 621.02,465.48 621.38,463.00 C621.73,460.52 622.48,454.47 623.03,449.54 C623.91,441.63 625.15,437.72 626.35,439.07 C626.56,439.30 625.72,445.48 624.49,452.80 ZM 415.00 397.71 C415.00,398.23 410.50,399.77 405.00,401.12 C399.50,402.47 395.00,403.29 395.00,402.94 C395.00,401.22 399.03,399.21 403.50,398.69 C406.25,398.36 409.96,397.80 411.75,397.43 C413.62,397.04 415.00,397.16 415.00,397.71 ZM 576.50 417.14 C574.85,417.70 567.42,418.32 560.00,418.51 L 546.50 418.84 L 558.00 418.01 C564.33,417.55 571.75,416.94 574.50,416.64 C578.82,416.18 579.09,416.24 576.50,417.14 Z" fill="rgb(212,119,64)"/>
<path d="M 616.00 407.99 C614.50,409.02 610.45,410.35 605.13,411.63 C608.41,410.73 610.94,409.80 611.98,409.01 C615.02,406.72 614.21,404.78 609.08,402.97 C612.34,403.92 614.72,404.83 615.68,405.57 C617.27,406.78 617.31,407.09 616.00,407.99 ZM 585.01 416.02 C584.57,415.50 586.08,415.03 589.45,414.63 C589.93,414.58 590.41,414.52 590.89,414.45 C587.77,415.06 585.54,415.65 585.01,416.02 ZM 597.71 400.26 C596.10,399.97 594.36,399.68 592.50,399.39 C588.02,398.70 584.59,398.12 582.23,397.66 C583.83,397.94 585.64,398.22 587.53,398.50 C590.99,399.00 594.45,399.61 597.71,400.26 ZM 602.63 413.50 C596.51,414.78 590.38,416.09 589.00,416.42 C588.12,416.63 587.09,416.66 586.28,416.52 C587.12,416.59 588.14,416.53 589.00,416.35 C590.38,416.06 596.51,414.78 602.63,413.50 ZM 615.47 409.53 C617.07,408.61 617.89,407.66 617.99,406.64 C618.06,407.60 617.21,408.57 615.47,409.53 ZM 609.51 401.52 C607.21,400.69 604.58,399.88 601.79,399.15 C604.48,399.82 607.05,400.61 609.51,401.52 ZM 617.37 405.41 C616.84,404.92 615.99,404.38 614.89,403.80 C615.01,403.86 615.13,403.92 615.25,403.98 C616.21,404.45 616.92,404.93 617.37,405.41 Z" fill="rgb(234,198,170)"/>
<path d="M 353.00 568.52 C353.00,565.20 359.32,564.79 405.16,565.15 C448.57,565.49 450.21,565.43 451.56,563.58 C452.81,561.88 452.72,561.49 450.73,560.13 C449.50,559.28 448.01,557.95 447.41,557.16 C446.82,556.37 444.93,555.62 443.22,555.49 C438.98,555.15 435.72,552.55 421.30,538.00 C412.40,529.01 408.07,523.81 405.91,519.50 C404.26,516.20 400.91,509.67 398.46,505.00 C390.06,488.93 387.59,481.15 383.08,456.50 C379.10,434.74 377.98,413.54 380.43,406.33 C382.34,400.69 384.35,399.06 392.50,396.57 C395.80,395.57 399.53,394.35 400.80,393.87 C402.06,393.39 404.31,392.98 405.80,392.96 C407.28,392.94 412.55,391.82 417.50,390.47 C425.65,388.26 425.98,388.08 421.00,388.59 C414.70,389.24 401.31,392.12 393.52,394.34 C395.87,393.59 398.53,392.87 401.50,392.18 C409.83,390.22 418.62,388.66 428.41,387.45 C428.24,387.49 428.14,387.53 428.11,387.56 C427.33,388.33 439.17,387.97 450.00,386.88 C455.77,386.30 464.77,385.49 470.00,385.07 C475.41,384.64 477.46,384.43 476.74,384.31 C484.70,384.12 493.25,384.04 502.50,384.04 C510.99,384.05 519.11,384.14 526.84,384.33 L 531.50 385.18 C534.25,385.68 543.45,386.31 551.94,386.57 C560.43,386.83 567.59,387.26 567.86,387.52 C568.12,387.78 570.58,388.00 573.33,388.00 C576.08,388.00 578.12,387.78 577.85,387.52 C577.83,387.50 577.78,387.48 577.71,387.46 C579.79,387.69 581.81,387.93 583.78,388.19 C582.69,388.10 581.75,388.06 581.00,388.08 C577.31,388.20 592.14,391.99 606.00,394.47 C622.54,397.44 626.08,401.06 626.53,415.50 C626.67,419.90 626.83,424.29 626.89,425.25 C627.03,427.53 631.03,427.56 635.30,425.32 C639.62,423.06 656.21,422.85 660.46,425.00 C664.17,426.88 673.38,438.07 676.03,443.91 C678.97,450.39 679.31,454.64 677.56,462.83 C675.75,471.28 671.76,478.76 668.36,480.05 C667.06,480.55 666.00,481.61 666.00,482.42 C666.00,484.28 658.62,491.24 652.88,494.80 C650.47,496.29 645.91,498.37 642.75,499.42 C639.59,500.47 637.00,501.61 637.00,501.96 C637.00,502.85 628.29,507.00 626.43,507.00 C625.60,507.00 623.94,507.91 622.75,509.02 C621.56,510.13 618.93,511.48 616.91,512.02 C614.89,512.57 612.68,513.69 611.99,514.51 C611.31,515.33 609.80,516.00 608.63,516.01 C606.38,516.02 590.28,529.04 586.71,533.74 C578.28,544.84 570.26,552.74 566.00,554.14 C564.08,554.77 561.23,556.35 559.67,557.64 C558.12,558.94 556.48,560.00 556.04,560.00 C554.40,560.00 554.31,563.71 555.92,564.72 C556.99,565.39 573.91,565.68 604.91,565.57 C630.96,565.48 654.12,565.65 656.38,565.96 C660.50,566.53 660.50,566.53 660.41,570.82 C660.33,574.55 659.69,575.75 655.41,580.10 C650.58,585.01 646.01,588.00 643.34,588.00 C642.59,588.00 640.12,589.35 637.84,591.00 C635.56,592.65 633.09,594.00 632.35,594.00 C631.61,594.00 631.00,594.43 631.00,594.95 C631.00,595.03 631.03,595.09 631.10,595.14 C621.27,595.89 594.38,595.98 507.57,595.95 C410.59,595.90 389.42,595.81 382.07,594.79 C382.23,594.59 381.40,594.00 379.37,593.08 C377.10,592.05 374.95,590.72 374.58,590.13 C374.22,589.54 371.82,588.13 369.26,587.00 C366.71,585.87 363.91,584.31 363.06,583.54 C359.16,580.04 356.36,577.03 354.65,574.55 C352.92,572.04 352.05,571.81 352.36,573.11 C351.94,572.17 351.62,571.35 351.42,570.63 C351.57,570.68 351.76,570.65 352.00,570.50 C352.55,570.16 353.00,569.27 353.00,568.52 ZM 575.00 396.20 C575.00,394.43 538.58,391.78 500.00,390.75 C489.49,390.47 471.00,392.00 471.00,393.15 C471.00,393.62 487.76,394.03 508.25,394.07 C530.60,394.12 550.70,394.66 558.50,395.43 L 559.03 395.49 C531.88,394.12 475.59,394.01 449.31,395.36 C450.87,395.23 452.46,395.11 454.00,394.99 C460.88,394.47 467.38,394.04 468.45,394.02 C469.77,394.01 470.07,393.67 469.38,392.98 C467.55,391.15 443.94,391.63 440.21,393.57 C438.72,394.35 436.26,394.99 434.75,394.99 C433.24,395.00 432.00,395.49 432.00,396.09 C432.00,396.41 432.31,396.62 432.92,396.72 C422.84,397.80 414.15,399.10 407.10,400.58 C411.60,399.38 415.00,398.16 415.00,397.71 C415.00,397.16 413.62,397.04 411.75,397.43 C409.96,397.80 406.25,398.36 403.50,398.69 C399.03,399.21 395.00,401.22 395.00,402.94 C395.00,403.18 397.20,402.86 400.41,402.17 C397.58,402.94 395.14,403.75 393.13,404.59 C390.19,405.82 389.93,406.21 391.09,407.60 C393.01,409.92 395.95,410.85 409.65,413.18 C400.48,411.76 397.92,412.02 406.74,413.91 C409.91,414.59 414.13,415.56 416.12,416.07 C418.10,416.58 422.15,417.05 425.12,417.12 C428.08,417.18 431.85,417.58 433.50,418.00 C435.15,418.42 441.45,418.74 447.50,418.71 C453.55,418.69 456.70,418.52 454.50,418.35 C453.24,418.25 452.01,418.15 450.82,418.05 C455.57,418.38 460.59,418.67 466.00,418.92 C472.09,419.21 478.15,419.42 484.19,419.57 C471.08,419.67 462.95,419.87 464.50,420.11 C469.79,420.91 529.55,420.93 538.50,420.13 C541.25,419.88 533.88,419.67 520.92,419.56 C529.54,419.35 538.14,419.00 546.71,418.49 C563.22,417.51 576.74,416.33 587.22,414.96 C585.43,415.28 584.68,415.64 585.01,416.02 C584.86,416.12 584.85,416.21 585.00,416.28 C585.31,416.40 585.76,416.49 586.28,416.52 C587.09,416.66 588.12,416.63 589.00,416.42 C590.38,416.09 596.51,414.78 602.63,413.50 C608.82,412.22 613.04,410.92 615.47,409.53 C617.21,408.57 618.06,407.60 617.99,406.64 C618.00,406.58 618.00,406.51 618.00,406.44 C618.00,406.14 617.78,405.79 617.37,405.41 C616.92,404.93 616.21,404.45 615.25,403.98 C615.13,403.92 615.01,403.86 614.89,403.80 C613.47,403.07 611.63,402.29 609.51,401.52 C607.05,400.61 604.48,399.82 601.79,399.15 C601.04,398.96 600.27,398.77 599.50,398.59 C593.14,397.10 575.13,395.37 576.03,396.33 C576.23,396.54 578.73,397.07 582.23,397.66 C583.09,397.83 584.10,398.02 585.25,398.21 C581.92,397.74 578.30,397.27 574.41,396.80 C574.79,396.77 574.93,396.69 574.98,396.58 C575.01,396.50 575.01,396.42 575.00,396.31 C575.00,396.28 575.00,396.24 575.00,396.20 ZM 528.00 588.45 C620.96,588.28 629.96,588.12 635.00,586.54 C638.03,585.60 641.50,584.85 642.72,584.90 C643.96,584.94 645.41,584.11 645.99,583.02 C646.57,581.94 648.11,579.91 649.42,578.50 C650.76,577.04 651.59,575.16 651.33,574.14 C650.93,572.62 648.98,572.20 638.18,571.31 C631.21,570.73 622.80,570.57 619.50,570.96 C616.20,571.35 579.75,571.75 538.50,571.86 C468.73,572.04 463.28,571.93 460.25,570.30 C457.22,568.66 456.78,568.66 453.75,570.18 C450.90,571.61 445.99,571.79 413.50,571.61 C373.59,571.40 362.70,571.70 363.50,573.00 C363.79,573.46 428.12,573.78 506.47,573.72 C584.82,573.65 649.24,573.91 649.62,574.29 C648.89,573.79 443.18,573.53 373.08,573.94 L 363.65 574.00 L 365.84 576.33 C365.02,575.55 364.25,575.00 363.94,575.00 C362.55,575.00 364.26,579.16 365.89,579.76 C366.77,580.09 369.48,582.07 371.89,584.18 L 376.28 588.00 L 389.89 588.11 C397.38,588.17 407.77,588.54 413.00,588.94 C418.23,589.33 423.40,589.42 424.50,589.14 C425.60,588.85 472.17,588.54 528.00,588.45 ZM 614.30 505.83 C616.61,504.63 619.37,503.23 620.43,502.71 C622.81,501.54 627.82,499.94 630.50,499.50 C632.33,499.20 646.21,491.63 649.23,489.30 C649.93,488.75 652.69,487.45 655.36,486.40 C658.04,485.36 660.96,483.40 661.86,482.05 C662.76,480.70 664.51,478.58 665.75,477.34 C666.99,476.10 668.00,473.92 668.00,472.50 C668.00,471.07 668.66,468.62 669.47,467.05 C670.28,465.49 671.32,460.26 671.79,455.45 C672.69,446.05 671.76,442.57 667.01,437.52 C664.55,434.89 657.09,431.06 652.12,429.86 C647.90,428.85 636.35,430.63 633.92,432.67 C633.05,433.40 631.42,434.00 630.29,434.00 C628.21,434.00 625.27,436.61 626.26,437.59 C626.48,437.81 628.30,437.18 630.68,436.10 C628.40,437.46 626.84,438.93 626.56,440.26 C626.42,440.92 626.08,442.91 625.65,445.51 C626.19,441.78 626.49,439.22 626.35,439.07 C625.15,437.72 623.91,441.63 623.03,449.54 C622.48,454.47 621.73,460.52 621.38,463.00 C621.02,465.48 621.06,467.18 621.48,466.80 C621.87,466.44 623.07,460.93 624.24,454.25 C623.44,459.11 622.39,464.25 621.19,469.37 C621.31,468.49 621.29,468.00 621.10,468.00 C619.98,468.00 618.32,471.83 617.03,477.40 C616.41,480.10 615.28,483.49 614.53,484.94 C613.78,486.38 612.86,489.35 612.47,491.53 C612.09,493.72 611.22,496.40 610.54,497.50 C608.39,500.99 607.80,508.00 609.66,508.00 C609.90,508.00 611.99,507.02 614.30,505.83 ZM 414.43 617.39 L 411.62 616.25 L 414.72 614.65 C417.47,613.22 427.54,613.03 507.65,612.84 C557.07,612.73 598.51,612.97 599.75,613.38 C602.05,614.15 602.55,615.59 601.23,617.67 C600.17,619.32 418.49,619.05 414.43,617.39 ZM 576.50 417.14 C579.09,416.24 578.82,416.18 574.50,416.64 C571.75,416.94 564.33,417.55 558.00,418.01 L 546.50 418.84 L 560.00 418.51 C567.42,418.32 574.85,417.70 576.50,417.14 ZM 382.91 585.49 C389.20,586.77 405.15,586.85 509.50,586.69 L 631.50 586.50 L 510.22 586.77 C403.18,587.01 388.60,586.87 382.91,585.49 ZM 593.61 389.65 C607.10,391.93 616.92,394.88 622.68,398.45 C621.73,397.91 620.61,397.34 619.28,396.68 C614.99,394.53 603.29,391.48 593.61,389.65 ZM 637.16 433.19 C644.41,430.59 652.54,430.21 657.07,432.49 C657.14,432.53 657.22,432.57 657.29,432.61 C654.33,431.21 651.21,430.92 646.57,431.23 C643.51,431.43 640.19,432.16 637.16,433.19 ZM 628.65 497.95 C637.82,493.69 647.38,489.10 649.37,487.86 C646.54,489.62 637.40,493.99 628.65,497.95 ZM 665.31 438.91 C669.41,443.48 671.19,449.81 670.56,456.83 C671.15,449.93 669.35,443.74 665.31,438.91 ZM 384.75 398.06 C381.42,400.25 379.04,403.00 378.39,405.57 C379.13,402.64 381.14,400.19 384.75,398.06 ZM 626.01 401.01 L 626.03 401.03 C627.54,402.54 627.91,403.97 627.99,411.03 C627.92,405.59 627.60,402.95 626.01,401.01 ZM 652.74 585.50 C656.57,582.18 659.71,578.31 661.60,574.75 C660.09,577.70 657.75,580.84 654.83,583.62 C654.15,584.27 653.45,584.90 652.74,585.50 ZM 659.55 433.90 C661.81,435.33 663.73,437.02 665.31,438.91 C664.99,438.55 664.65,438.20 664.29,437.86 C662.55,436.19 661.03,434.89 659.55,433.90 ZM 616.89 485.18 C615.81,488.63 614.70,491.89 613.57,494.84 C613.33,495.46 613.10,496.08 612.87,496.68 C613.04,496.22 613.21,495.75 613.39,495.28 C614.59,492.08 615.80,488.57 616.89,485.18 ZM 636.07 594.41 C635.82,594.49 635.56,594.55 635.25,594.62 C637.46,594.01 640.20,593.03 642.68,591.93 C640.56,592.92 638.36,593.75 636.07,594.41 ZM 351.10 568.62 C351.12,567.43 351.62,566.52 352.57,565.57 C351.82,566.32 351.31,567.56 351.10,568.62 ZM 612.41 408.67 C612.28,408.78 612.14,408.90 611.98,409.01 C611.42,409.43 610.43,409.90 609.13,410.38 C610.54,409.83 611.63,409.26 612.41,408.67 ZM 366.70 577.22 C367.70,578.21 368.80,579.12 370.01,579.96 C368.69,579.08 367.56,578.15 366.70,577.22 ZM 424.31 415.43 C421.05,415.01 418.07,414.57 415.20,414.10 C418.24,414.58 421.27,415.02 424.31,415.43 ZM 362.75 585.77 C360.89,584.35 359.21,582.84 357.75,581.27 C359.23,582.84 360.91,584.35 362.75,585.77 ZM 591.06 414.42 C591.00,414.43 590.95,414.44 590.89,414.45 C590.72,414.48 590.56,414.50 590.39,414.52 Z" fill="rgb(230,109,36)"/>
<path d="M 0.00 512.00 L 0.00 0.00 L 512.00 0.00 L 1024.00 0.00 L 1024.00 512.00 L 1024.00 1024.00 L 512.00 1024.00 L 0.00 1024.00 L 0.00 512.00 ZM 603.71 618.82 C605.60,617.26 605.28,613.22 603.19,612.10 C602.07,611.50 565.46,611.10 506.29,611.05 C420.54,610.97 411.03,611.11 409.59,612.55 C408.72,613.43 408.00,614.70 408.00,615.38 C408.00,616.97 410.13,619.66 411.78,620.14 C412.48,620.35 455.66,620.38 507.74,620.20 C572.93,619.99 602.83,619.56 603.71,618.82 ZM 636.07 594.41 C643.18,592.34 649.48,588.71 654.83,583.62 C661.29,577.47 664.90,569.56 662.93,565.87 C661.97,564.08 659.71,564.00 609.46,564.00 C580.20,564.00 557.00,563.61 557.00,563.13 C557.00,562.65 560.58,559.90 564.96,557.03 C569.34,554.15 576.20,548.37 580.21,544.18 C600.36,523.10 602.10,521.60 612.93,516.06 C618.66,513.13 629.55,507.92 637.12,504.48 C659.09,494.51 669.87,486.21 675.45,475.00 C683.21,459.38 680.80,440.64 669.61,429.72 C663.39,423.64 658.33,421.78 648.11,421.81 C640.45,421.83 636.45,422.63 629.75,425.47 C628.14,426.15 628.00,425.28 628.00,414.61 C628.00,404.40 627.76,402.76 626.03,401.03 C615.15,390.15 570.95,384.07 502.50,384.04 C455.31,384.02 426.35,386.35 401.50,392.18 C386.71,395.64 379.89,399.59 378.39,405.57 C377.36,409.68 378.72,438.02 380.53,450.00 C384.52,476.52 388.71,489.92 399.60,511.00 C410.26,531.63 422.41,545.12 440.62,556.54 C445.50,559.61 449.93,562.54 450.45,563.06 C451.05,563.65 433.25,564.00 402.77,564.00 C359.90,564.00 353.96,564.19 352.57,565.57 C350.49,567.65 350.59,569.52 353.04,574.59 C356.98,582.72 366.95,590.22 379.00,594.11 C384.15,595.78 392.43,595.90 507.57,595.95 C617.06,595.99 631.24,595.83 636.07,594.41 ZM 381.42 585.13 C374.65,583.18 369.66,580.40 366.06,576.56 L 363.65 574.00 L 373.08 573.94 C443.22,573.53 649.12,573.79 649.63,574.30 C650.90,575.56 643.03,581.84 637.26,584.18 L 631.50 586.50 L 509.50 586.69 C395.96,586.86 387.08,586.76 381.42,585.13 ZM 610.00 505.09 C610.00,504.58 611.61,499.97 613.57,494.84 C617.99,483.30 622.26,466.85 624.44,453.00 C625.35,447.23 626.30,441.49 626.56,440.26 C627.34,436.59 637.96,431.79 646.57,431.23 C654.71,430.69 658.16,431.98 664.29,437.86 C671.70,444.95 672.75,457.11 667.02,469.50 C663.97,476.10 657.59,482.74 649.37,487.86 C645.41,490.33 611.64,506.00 610.29,506.00 C610.13,506.00 610.00,505.59 610.00,505.09 ZM 466.00 418.92 C444.00,417.89 428.40,416.34 411.50,413.49 C396.21,410.92 393.10,410.02 391.09,407.60 C389.93,406.21 390.19,405.82 393.13,404.59 C402.00,400.89 419.04,397.84 442.00,395.84 C466.50,393.72 550.04,394.01 570.00,396.29 C597.54,399.43 612.55,402.66 613.71,405.68 C615.90,411.38 593.05,415.75 546.71,418.49 C520.11,420.06 493.34,420.20 466.00,418.92 Z" fill="rgb(254,254,254)"/>
</g>
</svg>